<svg width="250" height="11" viewBox="0 0 250 11" xmlns="http://www.w3.org/2000/svg"><title>logo</title><path d="M0 10.71V.294h3.135L5.62 5.759 8.02.293h3.084v10.418H7.985V4.103h-.052l-2.93 6.608h-.377L1.68 4.168h-.034v6.543H0zM21.075.293h1.645v7.235a3.406 3.406 0 0 1-.425 1.707c-.289.524-.762.946-1.418 1.268-.656.322-1.533.488-2.63.497-.938-.01-1.735-.18-2.39-.513-.654-.332-1.153-.771-1.496-1.316a3.32 3.32 0 0 1-.517-1.788V.293h3.119V7.27c-.002.613.169 1.104.512 1.473.343.37.869.56 1.578.57.707-.01 1.221-.2 1.544-.57.323-.369.482-.86.478-1.473V.293zm3.668 8.614l1.56-.9c.194.389.456.743.785 1.064.33.321.741.491 1.236.51.45-.003.801-.116 1.054-.339.253-.223.381-.533.385-.93-.013-.359-.18-.652-.502-.88a5.915 5.915 0 0 0-1.199-.63 15.31 15.31 0 0 1-1.43-.667 3.733 3.733 0 0 1-1.198-.993c-.322-.41-.49-.944-.503-1.605.018-1.083.372-1.94 1.065-2.57C26.688.335 27.613.013 28.77 0c.879-.002 1.613.163 2.204.496.59.334 1.106.849 1.548 1.546l-1.25.916a4.547 4.547 0 0 0-.832-1.073c-.318-.3-.749-.456-1.294-.47-.444.006-.772.13-.985.37-.213.24-.318.556-.317.948.014.355.184.642.513.861a6.2 6.2 0 0 0 1.224.605c.487.184.974.4 1.46.651.488.25.896.584 1.225 1.003.329.417.5.969.513 1.655-.008.736-.187 1.364-.537 1.883a3.37 3.37 0 0 1-1.428 1.19c-.601.275-1.283.413-2.044.415-.914.008-1.7-.152-2.36-.478-.661-.326-1.216-.863-1.667-1.611zm17.542 1.803h-7.264V.294h7.059v1.415h-3.94V4.65h3.734v1.415H38.14v3.231h4.146v1.415zm5.088-5.208c-.004.408.027.852.092 1.334.065.483.186.944.364 1.385.177.44.432.803.765 1.086.333.283.765.43 1.298.44.531-.01.963-.157 1.297-.44.332-.284.587-.645.765-1.086.178-.44.299-.902.364-1.385.065-.482.096-.926.092-1.334a9.415 9.415 0 0 0-.092-1.335 5.73 5.73 0 0 0-.364-1.384 2.74 2.74 0 0 0-.765-1.086c-.334-.284-.766-.43-1.297-.44-.533.01-.965.157-1.298.44a2.736 2.736 0 0 0-.765 1.086c-.178.44-.299.902-.364 1.384a9.37 9.37 0 0 0-.092 1.335zm-3.393 0c.011-1.03.276-1.957.794-2.783A5.637 5.637 0 0 1 46.88.75c.888-.486 1.891-.735 3.01-.747 1.12.012 2.123.26 3.01.747a5.636 5.636 0 0 1 2.11 1.97c.518.826.782 1.753.794 2.783-.012 1.03-.276 1.957-.794 2.783a5.634 5.634 0 0 1-2.108 1.968c-.887.487-1.89.736-3.01.747-1.119-.011-2.122-.26-3.01-.747a5.635 5.635 0 0 1-2.107-1.968c-.518-.826-.783-1.754-.794-2.783zm18.33-3.794V.293h9.116v1.415h-2.999v9.003H65.31V1.708h-3zm14.014 9.002h-3.118V.294h3.118V4.65h3.324V.293h3.119v10.418h-3.119V6.065h-3.324v4.646zm13.929-6.607l2.314-3.81h1.627l-3.221 5.24v5.178h-3.119V5.727L84.514.293h3.46l2.28 3.81zm4.694 4.804l1.56-.9c.194.389.456.743.785 1.064.33.321.742.491 1.236.51.45-.003.801-.116 1.054-.339.253-.223.381-.533.386-.93-.013-.359-.18-.652-.503-.88a5.916 5.916 0 0 0-1.198-.63 15.315 15.315 0 0 1-1.43-.667 3.733 3.733 0 0 1-1.199-.993c-.322-.41-.49-.944-.502-1.605.017-1.083.372-1.94 1.064-2.57.692-.631 1.617-.953 2.774-.967.879-.002 1.614.163 2.204.496.59.334 1.106.849 1.549 1.546l-1.252.916a4.55 4.55 0 0 0-.83-1.073c-.318-.3-.75-.456-1.294-.47-.444.006-.772.13-.985.37-.213.24-.319.556-.317.948.013.355.184.642.513.861.329.219.737.42 1.224.605.486.184.974.4 1.46.651.487.25.895.584 1.224 1.003.33.417.5.969.513 1.655-.007.736-.186 1.364-.537 1.883-.35.52-.826.916-1.427 1.19-.602.275-1.284.413-2.045.415-.913.008-1.7-.152-2.36-.478-.66-.326-1.216-.863-1.667-1.611zm9.37 0l1.56-.9c.194.389.456.743.785 1.064.33.321.741.491 1.236.51.45-.003.801-.116 1.054-.339.252-.223.38-.533.385-.93-.013-.359-.18-.652-.502-.88a5.919 5.919 0 0 0-1.198-.63 15.303 15.303 0 0 1-1.43-.667 3.732 3.732 0 0 1-1.2-.993c-.321-.41-.489-.944-.502-1.605.018-1.083.373-1.94 1.065-2.57.692-.631 1.617-.953 2.773-.967.88-.002 1.614.163 2.204.496.59.334 1.107.849 1.55 1.546l-1.252.916a4.555 4.555 0 0 0-.83-1.073c-.319-.3-.75-.456-1.294-.47-.445.006-.773.13-.986.37-.213.24-.318.556-.317.948.013.355.184.642.513.861a6.2 6.2 0 0 0 1.224.605c.487.184.974.4 1.46.651.488.25.896.584 1.225 1.003.329.417.5.969.513 1.655-.008.736-.187 1.364-.537 1.883a3.37 3.37 0 0 1-1.428 1.19c-.601.275-1.283.413-2.045.415-.913.008-1.7-.152-2.36-.478-.66-.326-1.216-.863-1.666-1.611zm17.543 1.803h-7.265V.294h7.059v1.415h-3.941V4.65h3.735v1.415h-3.735v3.231h4.147v1.415zm2.362 0V.294h3.479l3.7 5.257h.034V.293h1.646v10.418h-1.8l-5.38-7.653h-.034v7.653h-1.645zm15.315-5.952v1.495h-4.164V4.758h4.164zm2.221-4.465h5.33a6.218 6.218 0 0 1 1.811.315c.573.192 1.043.49 1.409.897.365.406.554.94.566 1.601-.013.63-.23 1.155-.652 1.574-.423.419-.97.666-1.644.742v.032c.482.097.928.262 1.339.495.41.232.743.53.995.89.254.362.384.785.39 1.268-.02.695-.237 1.231-.65 1.61a3.37 3.37 0 0 1-1.447.786c-.55.145-1.045.215-1.483.208h-5.964V.293zm3.12 5.723v3.376h1.319c.468.006.867-.117 1.197-.367.329-.25.501-.659.516-1.224-.015-.546-.208-.978-.578-1.296-.37-.319-.829-.482-1.375-.489h-1.08zm0-4.405v3.087h1.164c.488.003.875-.116 1.165-.356.29-.24.438-.62.446-1.14-.006-.509-.166-.9-.48-1.175-.315-.274-.748-.413-1.302-.416h-.993zm11.275 3.891a9.21 9.21 0 0 0 .092 1.334c.066.483.187.944.364 1.385.177.44.433.803.766 1.086.332.283.765.43 1.297.44.532-.01.963-.157 1.297-.44.333-.284.588-.645.764-1.086.179-.44.3-.902.365-1.385.065-.482.095-.926.092-1.334a9.545 9.545 0 0 0-.092-1.335 5.745 5.745 0 0 0-.365-1.384 2.73 2.73 0 0 0-.764-1.086c-.334-.284-.765-.43-1.297-.44-.532.01-.965.157-1.297.44a2.733 2.733 0 0 0-.766 1.086c-.177.44-.298.902-.364 1.384a9.208 9.208 0 0 0-.092 1.335zm-3.392 0c.01-1.03.275-1.957.793-2.783A5.635 5.635 0 0 1 155.662.75c.887-.486 1.89-.735 3.01-.747 1.119.012 2.123.26 3.01.747a5.643 5.643 0 0 1 2.107 1.969c.518.826.783 1.753.794 2.783-.011 1.03-.276 1.957-.794 2.783a5.641 5.641 0 0 1-2.107 1.968c-.887.487-1.891.736-3.01.747-1.12-.011-2.123-.26-3.01-.747a5.634 5.634 0 0 1-2.108-1.968c-.518-.826-.782-1.754-.793-2.783zm17.219 5.208h-3.12V.294h5.586a4.816 4.816 0 0 1 1.845.376 3.832 3.832 0 0 1 1.485 1.07c.394.464.597 1.022.611 1.673-.016.751-.266 1.37-.752 1.857-.485.486-1.109.816-1.87.989l2.691 4.453h-3.53l-2.759-5.306h.343a5.61 5.61 0 0 0 1.336-.125c.4-.092.717-.277.955-.558.237-.28.359-.701.365-1.262-.013-.593-.206-1.059-.58-1.397-.375-.338-.856-.51-1.442-.516h-1.165v9.164zm8.55 0V.294h3.478l3.701 5.257h.034V.293h1.645v10.418h-1.799l-5.38-7.653h-.034v7.653h-1.645zm19.238 0h-7.264V.294h7.059v1.415h-3.941V4.65h3.735v1.415h-3.735v3.231h4.146v1.415zm2.192 0V.294h3.136l2.484 5.466 2.4-5.467h3.084v10.418h-3.118V4.103h-.052l-2.93 6.608h-.377l-2.947-6.543h-.035v6.543h-1.644zm13.998 0V.294h3.119v10.418h-3.119zm5.342-1.803l1.56-.9c.194.389.456.743.786 1.064.329.321.74.491 1.236.51.449-.003.8-.116 1.053-.339.252-.223.381-.533.386-.93-.013-.359-.18-.652-.503-.88a5.906 5.906 0 0 0-1.199-.63 15.444 15.444 0 0 1-1.43-.667 3.725 3.725 0 0 1-1.197-.993c-.323-.41-.49-.944-.503-1.605.018-1.083.372-1.94 1.064-2.57.692-.631 1.617-.953 2.773-.967.88-.002 1.615.163 2.205.496.59.334 1.106.849 1.548 1.546l-1.25.916a4.564 4.564 0 0 0-.831-1.073c-.318-.3-.75-.456-1.295-.47-.443.006-.772.13-.984.37-.213.24-.32.556-.317.948.013.355.184.642.512.861.33.219.738.42 1.224.605.487.184.975.4 1.461.651.487.25.895.584 1.224 1.003.329.417.5.969.513 1.655-.008.736-.187 1.364-.536 1.883-.351.52-.826.916-1.428 1.19-.602.275-1.284.413-2.046.415-.912.008-1.699-.152-2.36-.478-.66-.326-1.216-.863-1.666-1.611zm9.542-7.199V.293h9.475l-5.433 9.003h5.072v1.415h-9.491l5.499-9.003h-5.122zm14.527.948l-1.267 3.618h2.723l-1.421-3.618h-.035zm-2.862 8.055h-1.61L242.735.293h3.119L250 10.711h-3.461l-1.216-3.023h-3.735l-1.08 3.023z" fill-rule="evenodd"/></svg>