<?xml version="1.0" standalone="no"?>
<!DOCTYPE svg PUBLIC "-//W3C//DTD SVG 20010904//EN"
 "http://www.w3.org/TR/2001/REC-SVG-20010904/DTD/svg10.dtd">
<svg version="1.0" xmlns="http://www.w3.org/2000/svg"
 width="960.000000pt" height="960.000000pt" viewBox="0 0 960.000000 960.000000"
 preserveAspectRatio="xMidYMid meet">
<metadata>
Created by potrace 1.11, written by Peter Selinger 2001-2013
</metadata>
<g transform="translate(0.000000,960.000000) scale(0.100000,-0.100000)"
fill="#000000" stroke="none">
<path d="M274 6696 l1 -411 190 -3 c105 -1 197 -3 205 -3 8 0 116 0 240 0 124
0 234 0 245 0 11 0 86 1 167 1 81 1 151 -1 155 -3 5 -3 8 -770 7 -1706 0
-1185 3 -1701 10 -1704 6 -2 216 -3 466 -3 l455 1 0 1708 0 1707 30 1 c24 0
435 -1 470 -2 26 0 612 0 630 1 11 0 35 1 52 1 l33 1 -1 413 -1 414 -1678 -1
-1678 0 2 -412z"/>
<path d="M6067 7102 c-3 -4 -4 -959 -4 -2122 l0 -2115 976 2 c537 1 990 4
1006 6 32 5 103 15 170 23 22 3 47 7 55 9 8 2 31 7 50 10 50 9 178 42 227 59
23 8 44 12 47 9 3 -4 6 -2 6 4 0 6 13 13 30 16 67 14 277 129 379 208 56 44
146 137 188 196 46 65 138 233 127 233 -4 0 -2 6 4 13 6 6 10 14 11 17 0 3 2
12 4 20 9 28 29 115 33 140 11 80 17 152 17 205 0 69 -11 214 -18 225 -2 3 -7
22 -10 41 -11 60 -52 172 -90 244 -101 190 -250 333 -449 430 -88 43 -246 95
-290 95 -29 0 -66 11 -66 19 0 3 23 15 52 25 343 122 595 394 653 705 27 143
25 368 -5 470 -5 18 -9 36 -8 40 0 3 -1 8 -2 11 -1 3 -3 13 -6 23 -10 43 -14
52 -55 145 -16 35 -48 92 -73 126 -43 60 -163 186 -177 186 -4 0 -14 6 -21 13
-35 34 -249 147 -280 147 -5 0 -24 6 -41 14 -80 35 -286 77 -444 91 -33 3 -92
9 -130 14 -84 10 -1861 13 -1866 3z m1772 -801 c110 -21 218 -65 274 -111 44
-36 55 -47 83 -90 109 -165 76 -426 -68 -545 -18 -14 -41 -33 -50 -41 -10 -7
-18 -11 -18 -7 0 3 -8 -1 -17 -9 -26 -22 -97 -48 -188 -67 -68 -15 -139 -18
-467 -19 -296 -1 -387 1 -390 11 -3 10 -2 868 1 888 2 12 774 3 840 -10z m-45
-1685 c185 -8 367 -48 436 -96 14 -10 29 -18 33 -18 16 0 116 -92 131 -120 67
-121 82 -246 45 -372 -26 -90 -97 -191 -163 -231 -21 -13 -51 -31 -65 -40 -32
-20 -134 -55 -181 -63 -19 -3 -46 -8 -60 -12 -31 -7 -958 -12 -968 -4 -4 3 -7
219 -7 480 0 363 3 476 12 480 16 7 617 4 787 -4z"/>
<path d="M3629 4966 c0 -12 -1 -173 -2 -358 l-2 -338 25 -1 c133 -4 1442 -1
1446 4 9 9 9 695 0 704 -4 5 -336 8 -737 9 l-729 0 -1 -20z"/>
</g>
</svg>
