<?xml version="1.0" encoding="UTF-8" standalone="no"?>
<svg width="250px" height="11px" viewBox="0 0 250 11" version="1.1" xmlns="http://www.w3.org/2000/svg" xmlns:xlink="http://www.w3.org/1999/xlink">
    <!-- Generator: Sketch 3.6.1 (26313) - http://www.bohemiancoding.com/sketch -->
    <title>logo</title>
    <desc>Created with Sketch.</desc>
    <defs></defs>
    <g id="Page-1" stroke="none" stroke-width="1" fill="none" fill-rule="evenodd">
        <g id="logo" fill="#000000">
            <path d="M0,10.7109 L0,0.293 L3.1355,0.293 L5.6201,5.7591 L8.0189,0.293 L11.103,0.293 L11.103,10.7109 L7.9847,10.7109 L7.9847,4.1032 L7.9331,4.1032 L5.0033,10.7109 L4.6263,10.7109 L1.6791,4.1676 L1.6449,4.1676 L1.6449,10.7109 L0,10.7109 L0,10.7109 L0,10.7109 Z" id="Shape"></path>
            <path d="M21.0749,0.293 L22.7201,0.293 L22.7201,7.5278 C22.7258,8.1424 22.5846,8.7113 22.2953,9.2352 C22.0061,9.759 21.5335,10.1814 20.8771,10.5033 C20.2205,10.8252 19.3442,10.9908 18.2478,11 C17.3087,10.9908 16.5122,10.8196 15.8572,10.4874 C15.2027,10.1548 14.7039,9.716 14.3614,9.1706 C14.0192,8.6257 13.8465,8.0296 13.8443,7.3827 L13.8443,0.293 L16.9629,0.293 L16.9629,7.27 C16.961,7.8825 17.1317,8.3741 17.4748,8.7431 C17.8178,9.1127 18.3437,9.3023 19.053,9.3121 C19.7597,9.3023 20.2743,9.1127 20.5974,8.7431 C20.9203,8.3741 21.0795,7.8825 21.0749,7.27 L21.0749,0.293 L21.0749,0.293 L21.0749,0.293 Z" id="Shape"></path>
            <path d="M24.7427,8.9066 L26.3022,8.0065 C26.4966,8.3956 26.7586,8.7503 27.088,9.0712 C27.4177,9.392 27.8293,9.5622 28.3237,9.5817 C28.7739,9.5781 29.1252,9.4648 29.3778,9.2424 C29.6305,9.0194 29.7592,8.7093 29.7632,8.3115 C29.7504,7.9532 29.5827,7.66 29.2607,7.4324 C28.9386,7.2049 28.539,6.9947 28.0623,6.8025 C27.5854,6.6097 27.109,6.3873 26.6321,6.1346 C26.1555,5.8814 25.7559,5.5508 25.4338,5.1417 C25.1118,4.7327 24.9441,4.1978 24.9312,3.5368 C24.9487,2.454 25.3035,1.5972 25.996,0.9665 C26.6881,0.3358 27.6125,0.0139 28.7695,1.0961284e-16 C29.6488,-0.0023 30.3833,0.163 30.9736,0.4965 C31.5636,0.8299 32.0796,1.3445 32.5221,2.0419 L31.2711,2.9581 C31.035,2.5424 30.7578,2.1844 30.4401,1.885 C30.1224,1.5854 29.6911,1.4288 29.1465,1.4147 C28.7023,1.4214 28.3737,1.5449 28.1612,1.7843 C27.9484,2.0245 27.8427,2.3405 27.8441,2.7331 C27.8575,3.0881 28.0285,3.3749 28.3574,3.594 C28.6862,3.8129 29.0943,4.0143 29.5811,4.1986 C30.0681,4.3826 30.5551,4.5999 31.0419,4.8501 C31.5289,5.1007 31.9367,5.4344 32.2658,5.8527 C32.5947,6.2699 32.7657,6.822 32.7791,7.5078 C32.7712,8.2444 32.5923,8.8723 32.2421,9.391 C31.8916,9.9103 31.4158,10.307 30.8143,10.5817 C30.2126,10.856 29.5311,10.9944 28.7695,10.9964 C27.8564,11.0036 27.0695,10.8442 26.4092,10.5182 C25.7487,10.1922 25.1935,9.655 24.7427,8.9066 L24.7427,8.9066 L24.7427,8.9066 Z" id="Shape"></path>
            <path d="M42.2855,10.7109 L35.0206,10.7109 L35.0206,0.293 L42.0798,0.293 L42.0798,1.7077 L38.1391,1.7077 L38.1391,4.6499 L41.8745,4.6499 L41.8745,6.0649 L38.1391,6.0649 L38.1391,9.2962 L42.2855,9.2962 L42.2855,10.7109 L42.2855,10.7109 L42.2855,10.7109 Z" id="Shape"></path>
            <path d="M47.3727,5.5018 C47.3691,5.9096 47.3997,6.354 47.465,6.8363 C47.53,7.3186 47.6513,7.7805 47.8289,8.2208 C48.0061,8.6616 48.2612,9.0235 48.5942,9.3069 C48.9272,9.5899 49.3593,9.7365 49.8917,9.7462 C50.4232,9.7365 50.8553,9.5899 51.1886,9.3069 C51.5213,9.0235 51.7764,8.6616 51.9537,8.2208 C52.1315,7.7805 52.2528,7.3186 52.3178,6.8363 C52.3828,6.354 52.4137,5.9096 52.4101,5.5018 C52.4137,5.0943 52.3828,4.6491 52.3178,4.1673 C52.2528,3.685 52.1315,3.2234 51.9537,2.7828 C51.7764,2.342 51.5213,1.9801 51.1886,1.6969 C50.8553,1.4135 50.4232,1.2671 49.8917,1.2576 C49.3593,1.2671 48.9272,1.4135 48.5942,1.6969 C48.2612,1.9801 48.0061,2.342 47.8289,2.7828 C47.6513,3.2234 47.53,3.685 47.465,4.1673 C47.3997,4.6491 47.3691,5.0943 47.3727,5.5018 L47.3727,5.5018 L47.3727,5.5018 Z M43.9802,5.5018 C43.9914,4.4723 44.256,3.5445 44.7739,2.7187 C45.2918,1.893 45.9944,1.2366 46.8813,0.7504 C47.7685,0.2637 48.772,0.0149 49.8917,0.0034 C51.0108,0.0149 52.0143,0.2637 52.9012,0.7504 C53.7884,1.2366 54.491,1.893 55.0089,2.7187 C55.5267,3.5445 55.7914,4.4723 55.8026,5.5018 C55.7914,6.5313 55.5267,7.4591 55.0089,8.2849 C54.491,9.1106 53.7884,9.7672 52.9012,10.2532 C52.0143,10.7396 51.0108,10.9887 49.8917,11 C48.772,10.9887 47.7685,10.7396 46.8813,10.2532 C45.9944,9.7672 45.2918,9.1106 44.7739,8.2849 C44.256,7.4591 43.9914,6.5313 43.9802,5.5018 L43.9802,5.5018 L43.9802,5.5018 Z" id="Shape"></path>
            <path d="M62.3105,1.7077 L62.3105,0.293 L71.4258,0.293 L71.4258,1.7077 L68.4274,1.7077 L68.4274,10.7109 L65.3088,10.7109 L65.3088,1.7077 L62.3105,1.7077 L62.3105,1.7077 L62.3105,1.7077 Z" id="Shape"></path>
            <path d="M76.3244,10.7109 L73.2058,10.7109 L73.2058,0.293 L76.3244,0.293 L76.3244,4.6499 L79.6484,4.6499 L79.6484,0.293 L82.7669,0.293 L82.7669,10.7109 L79.6484,10.7109 L79.6484,6.0649 L76.3244,6.0649 L76.3244,10.7109 L76.3244,10.7109 L76.3244,10.7109 Z" id="Shape"></path>
            <path d="M90.2531,4.1032 L92.5665,0.293 L94.1944,0.293 L90.9729,5.5338 L90.9729,10.7109 L87.8543,10.7109 L87.8543,5.7268 L84.5134,0.293 L87.9742,0.293 L90.2531,4.1032 L90.2531,4.1032 L90.2531,4.1032 Z" id="Shape"></path>
            <path d="M94.9472,8.9066 L96.5067,8.0065 C96.7011,8.3956 96.9631,8.7503 97.2925,9.0712 C97.6222,9.392 98.0338,9.5622 98.5282,9.5817 C98.9784,9.5781 99.3293,9.4648 99.5823,9.2424 C99.8347,9.0194 99.9633,8.7093 99.9677,8.3115 C99.9549,7.9532 99.7872,7.66 99.4651,7.4324 C99.1431,7.2049 98.7435,6.9947 98.2671,6.8025 C97.7902,6.6097 97.3135,6.3873 96.8366,6.1346 C96.36,5.8814 95.9604,5.5508 95.6383,5.1417 C95.3162,4.7327 95.1486,4.1978 95.1357,3.5368 C95.1532,2.454 95.508,1.5972 96.2004,0.9665 C96.8923,0.3358 97.8169,0.0139 98.9737,1.0961284e-16 C99.853,-0.0023 100.5878,0.163 101.1777,0.4965 C101.7681,0.8299 102.2841,1.3445 102.7266,2.0419 L101.4755,2.9581 C101.2393,2.5424 100.9623,2.1844 100.6446,1.885 C100.3269,1.5854 99.8956,1.4288 99.351,1.4147 C98.9068,1.4214 98.5785,1.5449 98.3657,1.7843 C98.1529,2.0245 98.0472,2.3405 98.0486,2.7331 C98.062,3.0881 98.233,3.3749 98.5618,3.594 C98.8907,3.8129 99.2988,4.0143 99.7858,4.1986 C100.2725,4.3826 100.7596,4.5999 101.2466,4.8501 C101.7334,5.1007 102.1412,5.4344 102.4703,5.8527 C102.7992,6.2699 102.9702,6.822 102.9833,7.5078 C102.9756,8.2444 102.797,8.8723 102.4463,9.391 C102.0961,9.9103 101.6202,10.307 101.0188,10.5817 C100.417,10.856 99.7355,10.9944 98.9737,10.9964 C98.0609,11.0036 97.2739,10.8442 96.6137,10.5182 C95.9532,10.1922 95.3976,9.655 94.9472,8.9066 L94.9472,8.9066 L94.9472,8.9066 Z" id="Shape"></path>
            <path d="M104.3168,8.9066 L105.8762,8.0065 C106.0707,8.3956 106.3326,8.7503 106.6621,9.0712 C106.9918,9.392 107.4034,9.5622 107.8981,9.5817 C108.348,9.5781 108.699,9.4648 108.9519,9.2424 C109.2043,9.0194 109.3329,8.7093 109.3373,8.3115 C109.3245,7.9532 109.1567,7.66 108.8347,7.4324 C108.5127,7.2049 108.113,6.9947 107.6367,6.8025 C107.1597,6.6097 106.6831,6.3873 106.2062,6.1346 C105.7296,5.8814 105.3299,5.5508 105.0079,5.1417 C104.6858,4.7327 104.5181,4.1978 104.5053,3.5368 C104.5231,2.454 104.8776,1.5972 105.5701,0.9665 C106.2619,0.3358 107.1865,0.0139 108.3433,1.0961284e-16 C109.2225,-0.0023 109.9573,0.163 110.5474,0.4965 C111.1377,0.8299 111.6536,1.3445 112.0961,2.0419 L110.8451,2.9581 C110.6088,2.5424 110.3318,2.1844 110.0142,1.885 C109.6965,1.5854 109.2649,1.4288 108.7206,1.4147 C108.2764,1.4214 107.9481,1.5449 107.7353,1.7843 C107.5225,2.0245 107.4171,2.3405 107.4182,2.7331 C107.4315,3.0881 107.6025,3.3749 107.9314,3.594 C108.2603,3.8129 108.6683,4.0143 109.1551,4.1986 C109.6421,4.3826 110.1292,4.5999 110.6159,4.8501 C111.1029,5.1007 111.5107,5.4344 111.8399,5.8527 C112.1688,6.2699 112.3398,6.822 112.3531,7.5078 C112.3452,8.2444 112.1663,8.8723 111.8162,9.391 C111.4657,9.9103 110.9899,10.307 110.3884,10.5817 C109.7869,10.856 109.1052,10.9944 108.3433,10.9964 C107.4304,11.0036 106.6435,10.8442 105.9833,10.5182 C105.3228,10.1922 104.7672,9.655 104.3168,8.9066 L104.3168,8.9066 L104.3168,8.9066 Z" id="Shape"></path>
            <path d="M121.8599,10.7109 L114.5946,10.7109 L114.5946,0.293 L121.6539,0.293 L121.6539,1.7077 L117.7129,1.7077 L117.7129,4.6499 L121.4482,4.6499 L121.4482,6.0649 L117.7129,6.0649 L117.7129,9.2962 L121.8599,9.2962 L121.8599,10.7109 L121.8599,10.7109 L121.8599,10.7109 Z" id="Shape"></path>
            <path d="M124.222,10.7109 L124.222,0.293 L127.7009,0.293 L131.4016,5.55 L131.4354,5.55 L131.4354,0.293 L133.0809,0.293 L133.0809,10.7109 L131.2814,10.7109 L125.9014,3.0581 L125.8672,3.0581 L125.8672,10.7109 L124.222,10.7109 L124.222,10.7109 L124.222,10.7109 Z" id="Shape"></path>
            <path d="M139.537,4.7578 L139.537,6.253 L135.3732,6.253 L135.3732,4.7578 L139.537,4.7578 L139.537,4.7578 L139.537,4.7578 Z" id="Shape"></path>
            <path d="M141.7583,0.293 L147.088,0.293 C147.7228,0.3109 148.3259,0.4157 148.8995,0.6079 C149.472,0.7996 149.9419,1.0987 150.3079,1.5052 C150.6729,1.9114 150.8618,2.445 150.8739,3.1063 C150.8608,3.7365 150.6433,4.2608 150.2216,4.6799 C149.7988,5.0989 149.2513,5.3457 148.5783,5.4216 L148.5783,5.4536 C149.0601,5.5508 149.5059,5.7156 149.9167,5.9485 C150.3276,6.1812 150.6597,6.4785 150.9121,6.8394 C151.1656,7.2013 151.2957,7.6236 151.3022,8.1065 C151.2814,8.8015 151.0651,9.3382 150.652,9.7175 C150.2402,10.0963 149.7572,10.3582 149.2054,10.5033 C148.6548,10.6484 148.1598,10.7176 147.7217,10.7109 L141.7583,10.7109 L141.7583,0.293 L141.7583,0.293 L141.7583,0.293 Z M144.8777,6.0162 L144.8777,9.392 L146.1965,9.392 C146.6652,9.3977 147.064,9.2752 147.3939,9.0245 C147.7228,8.7744 147.8954,8.3664 147.9097,7.801 C147.8954,7.2551 147.702,6.8235 147.3317,6.5047 C146.9612,6.1864 146.5034,6.0234 145.9572,6.0162 L144.8777,6.0162 L144.8777,6.0162 L144.8777,6.0162 Z M144.8777,1.6113 L144.8777,4.6981 L146.0424,4.6981 C146.5297,4.7009 146.9175,4.5825 147.2071,4.3424 C147.4977,4.1022 147.6453,3.7221 147.6528,3.2029 C147.6474,2.6934 147.4868,2.3015 147.1732,2.027 C146.8585,1.7528 146.4248,1.6144 145.8708,1.6113 L144.8777,1.6113 L144.8777,1.6113 L144.8777,1.6113 Z" id="Shape"></path>
            <path d="M156.1533,5.5018 C156.1489,5.9096 156.1795,6.354 156.2451,6.8363 C156.3107,7.3186 156.4319,7.7805 156.6089,8.2208 C156.7859,8.6616 157.0416,9.0235 157.3749,9.3069 C157.707,9.5899 158.1396,9.7365 158.6718,9.7462 C159.2039,9.7365 159.6354,9.5899 159.9686,9.3069 C160.3019,9.0235 160.5565,8.6616 160.7335,8.2208 C160.9116,7.7805 161.0328,7.3186 161.0984,6.8363 C161.1628,6.354 161.1935,5.9096 161.1902,5.5018 C161.1935,5.0943 161.1628,4.6491 161.0984,4.1673 C161.0328,3.685 160.9116,3.2234 160.7335,2.7828 C160.5565,2.342 160.3019,1.9801 159.9686,1.6969 C159.6354,1.4135 159.2039,1.2671 158.6718,1.2576 C158.1396,1.2671 157.707,1.4135 157.3749,1.6969 C157.0416,1.9801 156.7859,2.342 156.6089,2.7828 C156.4319,3.2234 156.3107,3.685 156.2451,4.1673 C156.1795,4.6491 156.1489,5.0943 156.1533,5.5018 L156.1533,5.5018 L156.1533,5.5018 Z M152.7607,5.5018 C152.7717,4.4723 153.0361,3.5445 153.554,2.7187 C154.0719,1.893 154.7744,1.2366 155.6616,0.7504 C156.5488,0.2637 157.5519,0.0149 158.6718,0.0034 C159.7906,0.0149 160.7947,0.2637 161.6818,0.7504 C162.569,1.2366 163.2705,1.893 163.7894,2.7187 C164.3074,3.5445 164.5718,4.4723 164.5828,5.5018 C164.5718,6.5313 164.3074,7.4591 163.7894,8.2849 C163.2705,9.1106 162.569,9.7672 161.6818,10.2532 C160.7947,10.7396 159.7906,10.9887 158.6718,11 C157.5519,10.9887 156.5488,10.7396 155.6616,10.2532 C154.7744,9.7672 154.0719,9.1106 153.554,8.2849 C153.0361,7.4591 152.7717,6.5313 152.7607,5.5018 L152.7607,5.5018 L152.7607,5.5018 Z" id="Shape"></path>
            <path d="M169.9791,10.7109 L166.8608,10.7109 L166.8608,0.293 L172.4462,0.293 C173.0777,0.2953 173.6917,0.4209 174.2905,0.6692 C174.8881,0.9175 175.3842,1.2738 175.7764,1.7387 C176.1697,2.2034 176.373,2.7608 176.3872,3.4118 C176.3708,4.1632 176.1206,4.7824 175.6354,5.2686 C175.1503,5.7553 174.5264,6.0849 173.7649,6.2576 L176.456,10.7109 L172.9258,10.7109 L170.167,5.4052 L170.5101,5.4052 C171.0017,5.4129 171.4464,5.3711 171.8463,5.2796 C172.2451,5.1884 172.5631,5.0026 172.8013,4.7219 C173.0383,4.4413 173.1596,4.0207 173.1662,3.4599 C173.1531,2.8669 172.9597,2.4012 172.5861,2.0634 C172.2112,1.7254 171.7305,1.5531 171.1438,1.547 L169.9791,1.547 L169.9791,10.7109 L169.9791,10.7109 L169.9791,10.7109 Z" id="Shape"></path>
            <path d="M178.5297,10.7109 L178.5297,0.293 L182.0085,0.293 L185.7092,5.55 L185.7431,5.55 L185.7431,0.293 L187.3885,0.293 L187.3885,10.7109 L185.5891,10.7109 L180.2091,3.0581 L180.1752,3.0581 L180.1752,10.7109 L178.5297,10.7109 L178.5297,10.7109 L178.5297,10.7109 Z" id="Shape"></path>
            <path d="M197.7682,10.7109 L190.5035,10.7109 L190.5035,0.293 L197.5629,0.293 L197.5629,1.7077 L193.6218,1.7077 L193.6218,4.6499 L197.3574,4.6499 L197.3574,6.0649 L193.6218,6.0649 L193.6218,9.2962 L197.7682,9.2962 L197.7682,10.7109 L197.7682,10.7109 L197.7682,10.7109 Z" id="Shape"></path>
            <path d="M199.96,10.7109 L199.96,0.293 L203.0958,0.293 L205.5803,5.7591 L207.9786,0.293 L211.063,0.293 L211.063,10.7109 L207.9447,10.7109 L207.9447,4.1032 L207.8934,4.1032 L204.963,10.7109 L204.5861,10.7109 L201.6393,4.1676 L201.6044,4.1676 L201.6044,10.7109 L199.96,10.7109 L199.96,10.7109 L199.96,10.7109 Z" id="Shape"></path>
            <path d="M213.9584,10.7109 L213.9584,0.293 L217.0767,0.293 L217.0767,10.7109 L213.9584,10.7109 L213.9584,10.7109 L213.9584,10.7109 Z" id="Shape"></path>
            <path d="M219.3001,8.9066 L220.8593,8.0065 C221.0538,8.3956 221.316,8.7503 221.646,9.0712 C221.9749,9.392 222.3867,9.5622 222.8817,9.5817 C223.3307,9.5781 223.6826,9.4648 223.9349,9.2424 C224.1873,9.0194 224.3163,8.7093 224.3207,8.3115 C224.3076,7.9532 224.1403,7.66 223.8181,7.4324 C223.4957,7.2049 223.0969,6.9947 222.6195,6.8025 C222.1431,6.6097 221.6667,6.3873 221.1892,6.1346 C220.7129,5.8814 220.313,5.5508 219.9917,5.1417 C219.6694,4.7327 219.5012,4.1978 219.4891,3.5368 C219.5066,2.454 219.8607,1.5972 220.5533,0.9665 C221.245,0.3358 222.1704,0.0139 223.3264,1.0961284e-16 C224.2059,-0.0023 224.9412,0.163 225.5312,0.4965 C226.1212,0.8299 226.637,1.3445 227.0795,2.0419 L225.8284,2.9581 C225.5924,2.5424 225.3149,2.1844 224.998,1.885 C224.6801,1.5854 224.2485,1.4288 223.7033,1.4147 C223.2597,1.4214 222.9308,1.5449 222.7189,1.7843 C222.5058,2.0245 222.3998,2.3405 222.402,2.7331 C222.4152,3.0881 222.5856,3.3749 222.9144,3.594 C223.2433,3.8129 223.652,4.0143 224.1382,4.1986 C224.6254,4.3826 225.1128,4.5999 225.599,4.8501 C226.0863,5.1007 226.4938,5.4344 226.8227,5.8527 C227.1516,6.2699 227.3231,6.822 227.3362,7.5078 C227.3285,8.2444 227.1494,8.8723 226.7997,9.391 C226.449,9.9103 225.9738,10.307 225.3717,10.5817 C224.7697,10.856 224.0879,10.9944 223.3264,10.9964 C222.4141,11.0036 221.6273,10.8442 220.9663,10.5182 C220.3064,10.1922 219.7502,9.655 219.3001,8.9066 L219.3001,8.9066 L219.3001,8.9066 Z" id="Shape"></path>
            <path d="M228.8418,1.7077 L228.8418,0.293 L238.3168,0.293 L232.8845,9.2962 L237.9563,9.2962 L237.9563,10.7109 L228.4648,10.7109 L233.9639,1.7077 L228.8418,1.7077 L228.8418,1.7077 L228.8418,1.7077 Z" id="Shape"></path>
            <path d="M243.369,2.656 L242.1016,6.2735 L244.8254,6.2735 L243.4039,2.656 L243.369,2.656 L243.369,2.656 L243.369,2.656 Z M240.5075,10.7109 L238.897,10.7109 L242.7354,0.293 L245.8536,0.293 L250,10.7109 L246.5386,10.7109 L245.3226,7.6882 L241.5881,7.6882 L240.5075,10.7109 L240.5075,10.7109 L240.5075,10.7109 Z" id="Shape"></path>
        </g>
    </g>
</svg>
